{"accessors":[{"bufferView":0,"byteOffset":0,"componentType":5126,"count":3917,"max":[2.0250000953674316,0.6250007152557373,0.10000000149011612],"min":[-0.03299526497721672,-0.02500000037252903,0.0],"type":"VEC3"},{"bufferView":1,"byteOffset":0,"componentType":5126,"count":3917,"normalized":false,"type":"VEC2"},{"bufferView":2,"byteOffset":0,"componentType":5125,"count":16464,"type":"SCALAR"}],"asset":{"generator":"VTK","version":"2.0"},"bufferViews":[{"buffer":0,"byteLength":47004,"byteOffset":0,"target":34962},{"buffer":1,"byteLength":31336,"byteOffset":0,"target":34962},{"buffer":2,"byteLength":65856,"byteOffset":0,"target":34963},{"buffer":3,"byteLength":273,"byteOffset":0,"target":34962}],"buffers":[{"byteLength":47004,"uri":"data:application/octet-stream;base64,"},{"byteLength":31336,"uri":"data:application/octet-stream;base64,"},{"byteLength":65856,"uri":"data:application/octet-stream;base64,"},{"byteLength":273,"uri":"data:application/octet-stream;base64,"}],"cameras":[{"perspective":{"aspectRatio":1.4236641221374047,"yfov":0.5235987755982988,"zfar":6.03293186569959,"znear":1.4036672152106675},"type":"perspective"}],"images":[{"bufferView":3,"mimeType":"image/png"}],"materials":[{"pbrMetallicRoughness":{"baseColorFactor":[1.0,1.0,1.0,1.0],"baseColorTexture":{"index":0,"texCoord":0},"metallicFactor":0.0,"roughnessFactor":1.0}}],"meshes":[{"name":"mesh0","primitives":[{"attributes":{"POSITION":0,"TEXCOORD_0":1},"indices":2,"material":0,"mode":4}]}],"nodes":[{"mesh":0,"name":"mesh0"},{"camera":0,"matrix":[0.5690377242560333,-0.8006791964452387,0.18737367145178507,-0.0,0.15027397636793233,0.3252786860063582,0.9336013648536228,0.0,-0.8084638522532005,-0.503097009342914,0.3054170898789577,-0.0,-1.7770471745833765,-1.5333499902744774,0.9836778214035179,1.0],"name":"Camera Node"},{"children":[0,1],"name":"Renderer Node"}],"samplers":[{"magFilter":9728,"minFilter":9728,"wrapS":33071,"wrapT":33071}],"scene":0,"scenes":[{"name":"Layer 0","nodes":[2]}],"textures":[{"sampler":0,"source":0}]}